<svg width="1489" height="828" viewBox="0 0 1489 828" fill="none" xmlns="http://www.w3.org/2000/svg">
<g opacity="0.1">
<path fill-rule="evenodd" clip-rule="evenodd" d="M82.1426 319.933L163.719 298.075L375.684 727.16L282.318 752.177L234.28 654.933L110.533 715.343L96.5242 801.96L0 827.824L82.1426 319.933ZM37.8701 727.077L100.962 336.976L152.38 323.199L345.075 713.276L293.657 727.053L243.968 626.466L37.8701 727.077ZM26.2872 798.695L77.7045 784.917L87.9272 721.71L34.5215 747.782L26.2872 798.695ZM101.696 636.575L220.348 578.652L138.019 411.991L101.696 636.575ZM129.29 599.367L191.765 568.868L148.415 481.115L129.29 599.367Z" fill="url(#paint0_radial_2020_1300)"/>
<path fill-rule="evenodd" clip-rule="evenodd" d="M505.341 682.627L423.765 704.485L211.8 275.401L305.166 250.383L353.204 347.628L476.951 287.218L490.96 200.6L587.484 174.737L505.341 682.627ZM549.614 275.483L486.522 665.584L435.104 679.361L242.409 289.284L293.827 275.507L343.516 376.095L549.614 275.483ZM561.197 203.866L509.779 217.643L499.557 280.85L552.962 254.779L561.197 203.866ZM485.788 365.985L367.136 423.908L449.465 590.569L485.788 365.985ZM458.194 403.193L395.719 433.692L439.069 521.445L458.194 403.193Z" fill="url(#paint1_radial_2020_1300)"/>
<path fill-rule="evenodd" clip-rule="evenodd" d="M1061.67 533.56L980.091 555.418L768.127 126.333L861.493 101.316L909.531 198.56L1033.28 138.15L1047.29 51.5327L1143.81 25.6691L1061.67 533.56ZM1105.94 126.416L1042.85 516.517L991.431 530.294L798.736 140.217L850.153 126.44L899.843 227.027L1105.94 126.416ZM1117.52 54.7982L1066.11 68.5755L1055.88 131.783L1109.29 105.711L1117.52 54.7982ZM1042.11 216.918L923.462 274.841L1005.79 441.502L1042.11 216.918ZM1014.52 254.126L952.046 284.624L995.395 372.378L1014.52 254.126Z" fill="url(#paint2_radial_2020_1300)"/>
<path fill-rule="evenodd" clip-rule="evenodd" d="M638.246 170.926L719.823 149.067L931.787 578.152L838.421 603.169L790.384 505.925L666.637 566.335L652.628 652.953L556.104 678.816L638.246 170.926ZM593.974 578.07L657.066 187.969L708.483 174.191L901.178 564.268L849.761 578.045L800.072 477.458L593.974 578.07ZM582.391 649.687L633.808 635.91L644.031 572.703L590.625 598.774L582.391 649.687ZM657.8 487.568L776.452 429.645L694.123 262.983L657.8 487.568ZM685.394 450.359L747.869 419.861L704.519 332.108L685.394 450.359Z" fill="url(#paint3_radial_2020_1300)"/>
<path fill-rule="evenodd" clip-rule="evenodd" d="M1194.57 21.8583L1276.15 -0.000116817L1488.11 429.085L1394.75 454.102L1346.71 356.858L1222.96 417.268L1208.95 503.885L1112.43 529.749L1194.57 21.8583ZM1150.3 429.002L1213.39 38.901L1264.81 25.1238L1457.5 415.201L1406.09 428.978L1356.4 328.391L1150.3 429.002ZM1138.72 500.62L1190.13 486.842L1200.36 423.635L1146.95 449.707L1138.72 500.62ZM1214.13 338.5L1332.78 280.577L1250.45 113.916L1214.13 338.5ZM1241.72 301.292L1304.19 270.793L1260.85 183.04L1241.72 301.292Z" fill="url(#paint4_radial_2020_1300)"/>
</g>
<defs>
<radialGradient id="paint0_radial_2020_1300" cx="0" cy="0" r="1" gradientUnits="userSpaceOnUse" gradientTransform="translate(744.057 413.912) scale(721.443 638.229)">
<stop stop-color="#9479BE"/>
<stop offset="1" stop-color="#151515"/>
</radialGradient>
<radialGradient id="paint1_radial_2020_1300" cx="0" cy="0" r="1" gradientUnits="userSpaceOnUse" gradientTransform="translate(744.057 413.912) scale(721.443 638.229)">
<stop stop-color="#9479BE"/>
<stop offset="1" stop-color="#151515"/>
</radialGradient>
<radialGradient id="paint2_radial_2020_1300" cx="0" cy="0" r="1" gradientUnits="userSpaceOnUse" gradientTransform="translate(744.057 413.912) scale(721.443 638.229)">
<stop stop-color="#9479BE"/>
<stop offset="1" stop-color="#151515"/>
</radialGradient>
<radialGradient id="paint3_radial_2020_1300" cx="0" cy="0" r="1" gradientUnits="userSpaceOnUse" gradientTransform="translate(744.057 413.912) scale(721.443 638.229)">
<stop stop-color="#9479BE"/>
<stop offset="1" stop-color="#151515"/>
</radialGradient>
<radialGradient id="paint4_radial_2020_1300" cx="0" cy="0" r="1" gradientUnits="userSpaceOnUse" gradientTransform="translate(744.057 413.912) scale(721.443 638.229)">
<stop stop-color="#9479BE"/>
<stop offset="1" stop-color="#151515"/>
</radialGradient>
</defs>
</svg>