<svg width="2268" height="1958" viewBox="0 0 2268 1958" fill="none" xmlns="http://www.w3.org/2000/svg">
<g opacity="0.1">
<path fill-rule="evenodd" clip-rule="evenodd" d="M450.794 349.272H512.476L603.623 807.083H533.56L496.495 619.845L312.984 655.516L450.794 349.272ZM508.012 602.706L545.575 792.456H585.798L500.474 363.899H460.251L337.909 635.77L508.012 602.706Z" fill="url(#paint0_radial_1977_1301)"/>
<path fill-rule="evenodd" clip-rule="evenodd" d="M699.838 807.083H638.156L547.009 349.272H617.072L654.137 536.51L837.648 500.839L699.838 807.083ZM642.62 553.649L605.057 363.899H564.834L650.158 792.456H690.381L812.723 520.584L642.62 553.649Z" fill="url(#paint1_radial_1977_1301)"/>
<path fill-rule="evenodd" clip-rule="evenodd" d="M1299.03 653.184H1360.71L1451.86 1110.99H1381.79L1344.73 923.757L1161.22 959.428L1299.03 653.184ZM1356.24 906.618L1393.81 1096.37H1434.03L1348.71 667.811H1308.48L1186.14 939.683L1356.24 906.618Z" fill="url(#paint2_radial_1977_1301)"/>
<path fill-rule="evenodd" clip-rule="evenodd" d="M1548.07 1110.99H1486.39L1395.24 653.184H1465.3L1502.37 840.422L1685.88 804.751L1548.07 1110.99ZM1490.85 857.561L1453.29 667.811H1413.07L1498.39 1096.37H1538.61L1660.96 824.496L1490.85 857.561Z" fill="url(#paint3_radial_1977_1301)"/>
<path fill-rule="evenodd" clip-rule="evenodd" d="M874.154 501.228H935.836L1026.98 959.039H956.92L919.855 771.801L736.344 807.472L874.154 501.228ZM931.372 754.662L968.935 944.412H1009.16L923.834 515.855H883.611L761.269 787.727L931.372 754.662Z" fill="url(#paint4_radial_1977_1301)"/>
<path fill-rule="evenodd" clip-rule="evenodd" d="M1123.2 959.039H1061.52L970.369 501.228H1040.43L1077.5 688.466L1261.01 652.795L1123.2 959.039ZM1065.98 705.605L1028.42 515.855H988.194L1073.52 944.412H1113.74L1236.08 672.54L1065.98 705.605Z" fill="url(#paint5_radial_1977_1301)"/>
<path fill-rule="evenodd" clip-rule="evenodd" d="M1722.39 805.14H1784.07L1875.22 1262.95H1805.15L1768.09 1075.71L1584.58 1111.38L1722.39 805.14ZM1779.6 1058.57L1817.17 1248.32H1857.39L1772.07 819.767H1731.84L1609.5 1091.64L1779.6 1058.57Z" fill="url(#paint6_radial_1977_1301)"/>
<path fill-rule="evenodd" clip-rule="evenodd" d="M1971.43 1262.95H1909.75L1818.6 805.14H1888.66L1925.73 992.378L2109.24 956.707L1971.43 1262.95ZM1914.21 1009.52L1876.65 819.767H1836.43L1921.75 1248.32H1961.97L2084.32 976.453L1914.21 1009.52Z" fill="url(#paint7_radial_1977_1301)"/>
<path fill-rule="evenodd" clip-rule="evenodd" d="M609.554 0H671.236L762.383 457.811H692.32L655.255 270.573L471.744 306.244L609.554 0ZM666.772 253.434L704.335 443.184H744.558L659.234 14.6265H619.011L496.669 286.498L666.772 253.434Z" fill="url(#paint8_radial_1977_1301)"/>
<path fill-rule="evenodd" clip-rule="evenodd" d="M858.598 457.811H796.916L705.769 0H775.832L812.897 187.238L996.408 151.567L858.598 457.811ZM801.38 204.377L763.817 14.6265H723.594L808.918 443.184H849.141L971.483 171.312L801.38 204.377Z" fill="url(#paint9_radial_1977_1301)"/>
<path fill-rule="evenodd" clip-rule="evenodd" d="M1457.79 303.912H1519.47L1610.62 761.723H1540.55L1503.49 574.485L1319.98 610.156L1457.79 303.912ZM1515 557.346L1552.57 747.096H1592.79L1507.47 318.539H1467.24L1344.9 590.411L1515 557.346Z" fill="url(#paint10_radial_1977_1301)"/>
<path fill-rule="evenodd" clip-rule="evenodd" d="M1706.83 761.723H1645.15L1554 303.912H1624.06L1661.13 491.15L1844.64 455.479L1706.83 761.723ZM1649.61 508.289L1612.05 318.539H1571.83L1657.15 747.096H1697.37L1819.72 475.224L1649.61 508.289Z" fill="url(#paint11_radial_1977_1301)"/>
<path fill-rule="evenodd" clip-rule="evenodd" d="M1032.91 151.956H1094.6L1185.74 609.767H1115.68L1078.61 422.529L895.104 458.2L1032.91 151.956ZM1090.13 405.39L1127.69 595.14H1167.92L1082.59 166.583H1042.37L920.029 438.454L1090.13 405.39Z" fill="url(#paint12_radial_1977_1301)"/>
<path fill-rule="evenodd" clip-rule="evenodd" d="M1281.96 609.767H1220.28L1129.13 151.956H1199.19L1236.26 339.194L1419.77 303.523L1281.96 609.767ZM1224.74 356.333L1187.18 166.583H1146.95L1232.28 595.14H1272.5L1394.84 323.268L1224.74 356.333Z" fill="url(#paint13_radial_1977_1301)"/>
<path fill-rule="evenodd" clip-rule="evenodd" d="M1881.15 455.868H1942.83L2033.98 913.679H1963.91L1926.85 726.441L1743.34 762.112L1881.15 455.868ZM1938.36 709.302L1975.93 899.052H2016.15L1930.83 470.495H1890.6L1768.26 742.367L1938.36 709.302Z" fill="url(#paint14_radial_1977_1301)"/>
<path fill-rule="evenodd" clip-rule="evenodd" d="M2130.19 913.679H2068.51L1977.36 455.868H2047.42L2084.49 643.106L2268 607.435L2130.19 913.679ZM2072.97 660.245L2035.41 470.495H1995.19L2080.51 899.052H2120.73L2243.08 627.18L2072.97 660.245Z" fill="url(#paint15_radial_1977_1301)"/>
<path fill-rule="evenodd" clip-rule="evenodd" d="M137.81 1044.04H199.492L290.639 1501.85H220.576L183.511 1314.61L0 1350.28L137.81 1044.04ZM195.028 1297.47L232.591 1487.22H272.814L187.49 1058.66H147.267L24.9246 1330.53L195.028 1297.47Z" fill="url(#paint16_radial_1977_1301)"/>
<path fill-rule="evenodd" clip-rule="evenodd" d="M386.854 1501.85H325.172L234.025 1044.04H304.088L341.153 1231.27L524.664 1195.6L386.854 1501.85ZM329.636 1248.41L292.073 1058.66H251.85L337.174 1487.22H377.397L499.739 1215.35L329.636 1248.41Z" fill="url(#paint17_radial_1977_1301)"/>
<path fill-rule="evenodd" clip-rule="evenodd" d="M986.042 1347.95H1047.72L1138.87 1805.76H1068.81L1031.74 1618.52L848.232 1654.19L986.042 1347.95ZM1043.26 1601.38L1080.82 1791.13H1121.05L1035.72 1362.57H995.499L873.157 1634.45L1043.26 1601.38Z" fill="url(#paint18_radial_1977_1301)"/>
<path fill-rule="evenodd" clip-rule="evenodd" d="M1235.09 1805.76H1173.4L1082.26 1347.95H1152.32L1189.39 1535.19L1372.9 1499.52L1235.09 1805.76ZM1177.87 1552.33L1140.31 1362.57H1100.08L1185.41 1791.13H1225.63L1347.97 1519.26L1177.87 1552.33Z" fill="url(#paint19_radial_1977_1301)"/>
<path fill-rule="evenodd" clip-rule="evenodd" d="M561.17 1195.99H622.851L713.999 1653.8H643.936L606.871 1466.56L423.36 1502.24L561.17 1195.99ZM618.388 1449.43L655.951 1639.18H696.174L610.85 1210.62H570.627L448.285 1482.49L618.388 1449.43Z" fill="url(#paint20_radial_1977_1301)"/>
<path fill-rule="evenodd" clip-rule="evenodd" d="M810.214 1653.8H748.532L657.385 1195.99H727.448L764.513 1383.23L948.024 1347.56L810.214 1653.8ZM752.996 1400.37L715.433 1210.62H675.21L760.534 1639.18H800.757L923.099 1367.3L752.996 1400.37Z" fill="url(#paint21_radial_1977_1301)"/>
<path fill-rule="evenodd" clip-rule="evenodd" d="M1409.4 1499.9H1471.08L1562.23 1957.71H1492.17L1455.1 1770.48L1271.59 1806.15L1409.4 1499.9ZM1466.62 1753.34L1504.18 1943.09H1544.41L1459.08 1514.53H1418.86L1296.52 1786.4L1466.62 1753.34Z" fill="url(#paint22_radial_1977_1301)"/>
<path fill-rule="evenodd" clip-rule="evenodd" d="M1658.45 1957.71H1596.76L1505.62 1499.9H1575.68L1612.75 1687.14L1796.26 1651.47L1658.45 1957.71ZM1601.23 1704.28L1563.67 1514.53H1523.44L1608.77 1943.09H1648.99L1771.33 1671.22L1601.23 1704.28Z" fill="url(#paint23_radial_1977_1301)"/>
<path fill-rule="evenodd" clip-rule="evenodd" d="M296.57 694.764H358.251L449.399 1152.57H379.336L342.271 965.337L158.76 1001.01L296.57 694.764ZM353.788 948.198L391.351 1137.95H431.574L346.25 709.391H306.027L183.685 981.263L353.788 948.198Z" fill="url(#paint24_radial_1977_1301)"/>
<path fill-rule="evenodd" clip-rule="evenodd" d="M545.614 1152.57H483.932L392.785 694.764H462.848L499.913 882.002L683.424 846.331L545.614 1152.57ZM488.396 899.141L450.833 709.391H410.61L495.934 1137.95H536.157L658.499 866.076L488.396 899.141Z" fill="url(#paint25_radial_1977_1301)"/>
<path fill-rule="evenodd" clip-rule="evenodd" d="M1144.8 998.676H1206.48L1297.63 1456.49H1227.57L1190.5 1269.25L1006.99 1304.92L1144.8 998.676ZM1202.02 1252.11L1239.58 1441.86H1279.81L1194.48 1013.3H1154.26L1031.92 1285.17L1202.02 1252.11Z" fill="url(#paint26_radial_1977_1301)"/>
<path fill-rule="evenodd" clip-rule="evenodd" d="M1393.85 1456.49H1332.16L1241.02 998.676H1311.08L1348.15 1185.91L1531.66 1150.24L1393.85 1456.49ZM1336.63 1203.05L1299.07 1013.3H1258.84L1344.17 1441.86H1384.39L1506.73 1169.99L1336.63 1203.05Z" fill="url(#paint27_radial_1977_1301)"/>
<path fill-rule="evenodd" clip-rule="evenodd" d="M719.93 846.72H781.612L872.759 1304.53H802.696L765.631 1117.29L582.12 1152.96L719.93 846.72ZM777.148 1100.15L814.711 1289.9H854.934L769.61 861.347H729.387L607.045 1133.22L777.148 1100.15Z" fill="url(#paint28_radial_1977_1301)"/>
<path fill-rule="evenodd" clip-rule="evenodd" d="M968.974 1304.53H907.292L816.145 846.72H886.208L923.273 1033.96L1106.78 998.287L968.974 1304.53ZM911.756 1051.1L874.193 861.347H833.97L919.294 1289.9H959.517L1081.86 1018.03L911.756 1051.1Z" fill="url(#paint29_radial_1977_1301)"/>
<path fill-rule="evenodd" clip-rule="evenodd" d="M1568.16 1150.63H1629.84L1720.99 1608.44H1650.93L1613.86 1421.2L1430.35 1456.88L1568.16 1150.63ZM1625.38 1404.07L1662.94 1593.82H1703.17L1617.84 1165.26H1577.62L1455.28 1437.13L1625.38 1404.07Z" fill="url(#paint30_radial_1977_1301)"/>
<path fill-rule="evenodd" clip-rule="evenodd" d="M1817.21 1608.44H1755.52L1664.38 1150.63H1734.44L1771.51 1337.87L1955.02 1302.2L1817.21 1608.44ZM1759.99 1355.01L1722.43 1165.26H1682.2L1767.53 1593.82H1807.75L1930.09 1321.94L1759.99 1355.01Z" fill="url(#paint31_radial_1977_1301)"/>
</g>
<defs>
<radialGradient id="paint0_radial_1977_1301" cx="0" cy="0" r="1" gradientUnits="userSpaceOnUse" gradientTransform="translate(1134 978.857) scale(1055.5 774.843)">
<stop stop-color="#9479BE"/>
<stop offset="1" stop-color="#151515" stop-opacity="0"/>
</radialGradient>
<radialGradient id="paint1_radial_1977_1301" cx="0" cy="0" r="1" gradientUnits="userSpaceOnUse" gradientTransform="translate(1134 978.857) scale(1055.5 774.843)">
<stop stop-color="#9479BE"/>
<stop offset="1" stop-color="#151515" stop-opacity="0"/>
</radialGradient>
<radialGradient id="paint2_radial_1977_1301" cx="0" cy="0" r="1" gradientUnits="userSpaceOnUse" gradientTransform="translate(1134 978.857) scale(1055.5 774.843)">
<stop stop-color="#9479BE"/>
<stop offset="1" stop-color="#151515" stop-opacity="0"/>
</radialGradient>
<radialGradient id="paint3_radial_1977_1301" cx="0" cy="0" r="1" gradientUnits="userSpaceOnUse" gradientTransform="translate(1134 978.857) scale(1055.5 774.843)">
<stop stop-color="#9479BE"/>
<stop offset="1" stop-color="#151515" stop-opacity="0"/>
</radialGradient>
<radialGradient id="paint4_radial_1977_1301" cx="0" cy="0" r="1" gradientUnits="userSpaceOnUse" gradientTransform="translate(1134 978.857) scale(1055.5 774.843)">
<stop stop-color="#9479BE"/>
<stop offset="1" stop-color="#151515" stop-opacity="0"/>
</radialGradient>
<radialGradient id="paint5_radial_1977_1301" cx="0" cy="0" r="1" gradientUnits="userSpaceOnUse" gradientTransform="translate(1134 978.857) scale(1055.5 774.843)">
<stop stop-color="#9479BE"/>
<stop offset="1" stop-color="#151515" stop-opacity="0"/>
</radialGradient>
<radialGradient id="paint6_radial_1977_1301" cx="0" cy="0" r="1" gradientUnits="userSpaceOnUse" gradientTransform="translate(1134 978.857) scale(1055.5 774.843)">
<stop stop-color="#9479BE"/>
<stop offset="1" stop-color="#151515" stop-opacity="0"/>
</radialGradient>
<radialGradient id="paint7_radial_1977_1301" cx="0" cy="0" r="1" gradientUnits="userSpaceOnUse" gradientTransform="translate(1134 978.857) scale(1055.5 774.843)">
<stop stop-color="#9479BE"/>
<stop offset="1" stop-color="#151515" stop-opacity="0"/>
</radialGradient>
<radialGradient id="paint8_radial_1977_1301" cx="0" cy="0" r="1" gradientUnits="userSpaceOnUse" gradientTransform="translate(1134 978.857) scale(1055.5 774.843)">
<stop stop-color="#9479BE"/>
<stop offset="1" stop-color="#151515" stop-opacity="0"/>
</radialGradient>
<radialGradient id="paint9_radial_1977_1301" cx="0" cy="0" r="1" gradientUnits="userSpaceOnUse" gradientTransform="translate(1134 978.857) scale(1055.5 774.843)">
<stop stop-color="#9479BE"/>
<stop offset="1" stop-color="#151515" stop-opacity="0"/>
</radialGradient>
<radialGradient id="paint10_radial_1977_1301" cx="0" cy="0" r="1" gradientUnits="userSpaceOnUse" gradientTransform="translate(1134 978.857) scale(1055.5 774.843)">
<stop stop-color="#9479BE"/>
<stop offset="1" stop-color="#151515" stop-opacity="0"/>
</radialGradient>
<radialGradient id="paint11_radial_1977_1301" cx="0" cy="0" r="1" gradientUnits="userSpaceOnUse" gradientTransform="translate(1134 978.857) scale(1055.5 774.843)">
<stop stop-color="#9479BE"/>
<stop offset="1" stop-color="#151515" stop-opacity="0"/>
</radialGradient>
<radialGradient id="paint12_radial_1977_1301" cx="0" cy="0" r="1" gradientUnits="userSpaceOnUse" gradientTransform="translate(1134 978.857) scale(1055.5 774.843)">
<stop stop-color="#9479BE"/>
<stop offset="1" stop-color="#151515" stop-opacity="0"/>
</radialGradient>
<radialGradient id="paint13_radial_1977_1301" cx="0" cy="0" r="1" gradientUnits="userSpaceOnUse" gradientTransform="translate(1134 978.857) scale(1055.5 774.843)">
<stop stop-color="#9479BE"/>
<stop offset="1" stop-color="#151515" stop-opacity="0"/>
</radialGradient>
<radialGradient id="paint14_radial_1977_1301" cx="0" cy="0" r="1" gradientUnits="userSpaceOnUse" gradientTransform="translate(1134 978.857) scale(1055.5 774.843)">
<stop stop-color="#9479BE"/>
<stop offset="1" stop-color="#151515" stop-opacity="0"/>
</radialGradient>
<radialGradient id="paint15_radial_1977_1301" cx="0" cy="0" r="1" gradientUnits="userSpaceOnUse" gradientTransform="translate(1134 978.857) scale(1055.5 774.843)">
<stop stop-color="#9479BE"/>
<stop offset="1" stop-color="#151515" stop-opacity="0"/>
</radialGradient>
<radialGradient id="paint16_radial_1977_1301" cx="0" cy="0" r="1" gradientUnits="userSpaceOnUse" gradientTransform="translate(1134 978.857) scale(1055.5 774.843)">
<stop stop-color="#9479BE"/>
<stop offset="1" stop-color="#151515" stop-opacity="0"/>
</radialGradient>
<radialGradient id="paint17_radial_1977_1301" cx="0" cy="0" r="1" gradientUnits="userSpaceOnUse" gradientTransform="translate(1134 978.857) scale(1055.5 774.843)">
<stop stop-color="#9479BE"/>
<stop offset="1" stop-color="#151515" stop-opacity="0"/>
</radialGradient>
<radialGradient id="paint18_radial_1977_1301" cx="0" cy="0" r="1" gradientUnits="userSpaceOnUse" gradientTransform="translate(1134 978.857) scale(1055.5 774.843)">
<stop stop-color="#9479BE"/>
<stop offset="1" stop-color="#151515" stop-opacity="0"/>
</radialGradient>
<radialGradient id="paint19_radial_1977_1301" cx="0" cy="0" r="1" gradientUnits="userSpaceOnUse" gradientTransform="translate(1134 978.857) scale(1055.5 774.843)">
<stop stop-color="#9479BE"/>
<stop offset="1" stop-color="#151515" stop-opacity="0"/>
</radialGradient>
<radialGradient id="paint20_radial_1977_1301" cx="0" cy="0" r="1" gradientUnits="userSpaceOnUse" gradientTransform="translate(1134 978.857) scale(1055.5 774.843)">
<stop stop-color="#9479BE"/>
<stop offset="1" stop-color="#151515" stop-opacity="0"/>
</radialGradient>
<radialGradient id="paint21_radial_1977_1301" cx="0" cy="0" r="1" gradientUnits="userSpaceOnUse" gradientTransform="translate(1134 978.857) scale(1055.5 774.843)">
<stop stop-color="#9479BE"/>
<stop offset="1" stop-color="#151515" stop-opacity="0"/>
</radialGradient>
<radialGradient id="paint22_radial_1977_1301" cx="0" cy="0" r="1" gradientUnits="userSpaceOnUse" gradientTransform="translate(1134 978.857) scale(1055.5 774.843)">
<stop stop-color="#9479BE"/>
<stop offset="1" stop-color="#151515" stop-opacity="0"/>
</radialGradient>
<radialGradient id="paint23_radial_1977_1301" cx="0" cy="0" r="1" gradientUnits="userSpaceOnUse" gradientTransform="translate(1134 978.857) scale(1055.5 774.843)">
<stop stop-color="#9479BE"/>
<stop offset="1" stop-color="#151515" stop-opacity="0"/>
</radialGradient>
<radialGradient id="paint24_radial_1977_1301" cx="0" cy="0" r="1" gradientUnits="userSpaceOnUse" gradientTransform="translate(1134 978.857) scale(1055.5 774.843)">
<stop stop-color="#9479BE"/>
<stop offset="1" stop-color="#151515" stop-opacity="0"/>
</radialGradient>
<radialGradient id="paint25_radial_1977_1301" cx="0" cy="0" r="1" gradientUnits="userSpaceOnUse" gradientTransform="translate(1134 978.857) scale(1055.5 774.843)">
<stop stop-color="#9479BE"/>
<stop offset="1" stop-color="#151515" stop-opacity="0"/>
</radialGradient>
<radialGradient id="paint26_radial_1977_1301" cx="0" cy="0" r="1" gradientUnits="userSpaceOnUse" gradientTransform="translate(1134 978.857) scale(1055.5 774.843)">
<stop stop-color="#9479BE"/>
<stop offset="1" stop-color="#151515" stop-opacity="0"/>
</radialGradient>
<radialGradient id="paint27_radial_1977_1301" cx="0" cy="0" r="1" gradientUnits="userSpaceOnUse" gradientTransform="translate(1134 978.857) scale(1055.5 774.843)">
<stop stop-color="#9479BE"/>
<stop offset="1" stop-color="#151515" stop-opacity="0"/>
</radialGradient>
<radialGradient id="paint28_radial_1977_1301" cx="0" cy="0" r="1" gradientUnits="userSpaceOnUse" gradientTransform="translate(1134 978.857) scale(1055.5 774.843)">
<stop stop-color="#9479BE"/>
<stop offset="1" stop-color="#151515" stop-opacity="0"/>
</radialGradient>
<radialGradient id="paint29_radial_1977_1301" cx="0" cy="0" r="1" gradientUnits="userSpaceOnUse" gradientTransform="translate(1134 978.857) scale(1055.5 774.843)">
<stop stop-color="#9479BE"/>
<stop offset="1" stop-color="#151515" stop-opacity="0"/>
</radialGradient>
<radialGradient id="paint30_radial_1977_1301" cx="0" cy="0" r="1" gradientUnits="userSpaceOnUse" gradientTransform="translate(1134 978.857) scale(1055.5 774.843)">
<stop stop-color="#9479BE"/>
<stop offset="1" stop-color="#151515" stop-opacity="0"/>
</radialGradient>
<radialGradient id="paint31_radial_1977_1301" cx="0" cy="0" r="1" gradientUnits="userSpaceOnUse" gradientTransform="translate(1134 978.857) scale(1055.5 774.843)">
<stop stop-color="#9479BE"/>
<stop offset="1" stop-color="#151515" stop-opacity="0"/>
</radialGradient>
</defs>
</svg>
