<svg width="21" height="20" viewBox="0 0 21 20" fill="none" xmlns="http://www.w3.org/2000/svg"><path d="M10.1534 4.87225C7.31505 4.87225 5.02564 7.16166 5.02564 10C5.02564 12.8383 7.31505 15.1277 10.1534 15.1277C12.9917 15.1277 15.2811 12.8383 15.2811 10C15.2811 7.16166 12.9917 4.87225 10.1534 4.87225ZM10.1534 13.3337C8.31918 13.3337 6.81968 11.8387 6.81968 10C6.81968 8.16133 8.31472 6.6663 10.1534 6.6663C11.9921 6.6663 13.4871 8.16133 13.4871 10C13.4871 11.8387 11.9876 13.3337 10.1534 13.3337ZM16.6869 4.6625C16.6869 5.32746 16.1514 5.85853 15.4909 5.85853C14.8259 5.85853 14.2949 5.32299 14.2949 4.6625C14.2949 4.00201 14.8304 3.46647 15.4909 3.46647C16.1514 3.46647 16.6869 4.00201 16.6869 4.6625ZM20.0831 5.87638C20.0072 4.27424 19.6413 2.85507 18.4676 1.68582C17.2983 0.516568 15.8792 0.150619 14.277 0.070289C12.6258 -0.0234297 7.67654 -0.0234297 6.02531 0.070289C4.42763 0.146156 3.00846 0.512105 1.83475 1.68136C0.661031 2.85061 0.299545 4.26978 0.219215 5.87192C0.125496 7.52315 0.125496 12.4724 0.219215 14.1236C0.295082 15.7258 0.661031 17.1449 1.83475 18.3142C3.00846 19.4834 4.42316 19.8494 6.02531 19.9297C7.67654 20.0234 12.6258 20.0234 14.277 19.9297C15.8792 19.8538 17.2983 19.4879 18.4676 18.3142C19.6368 17.1449 20.0028 15.7258 20.0831 14.1236C20.1768 12.4724 20.1768 7.52761 20.0831 5.87638ZM17.9499 15.8953C17.6018 16.7701 16.9279 17.4439 16.0487 17.7965C14.7322 18.3186 11.6083 18.1981 10.1534 18.1981C8.69852 18.1981 5.5701 18.3142 4.25804 17.7965C3.38333 17.4484 2.70945 16.7745 2.35689 15.8953C1.83475 14.5788 1.95524 11.4549 1.95524 10C1.95524 8.54513 1.83921 5.41671 2.35689 4.10465C2.70499 3.22995 3.37887 2.55606 4.25804 2.2035C5.57456 1.68136 8.69852 1.80185 10.1534 1.80185C11.6083 1.80185 14.7367 1.68582 16.0487 2.2035C16.9234 2.5516 17.5973 3.22548 17.9499 4.10465C18.472 5.42118 18.3515 8.54513 18.3515 10C18.3515 11.4549 18.472 14.5833 17.9499 15.8953Z" fill="#71677E"/></svg>