<svg width="11" height="14" viewBox="0 0 11 14" fill="none" xmlns="http://www.w3.org/2000/svg">
<path fill-rule="evenodd" clip-rule="evenodd" d="M9.45939 5.98823C9.96683 6.32652 10.2206 6.49567 10.309 6.70887C10.3863 6.89526 10.3863 7.10474 10.309 7.29113C10.2206 7.50433 9.96683 7.67348 9.45939 8.01177L2.36757 12.7397C1.75344 13.1491 1.44638 13.3538 1.19175 13.3386C0.969927 13.3253 0.76501 13.2157 0.630943 13.0384C0.477051 12.835 0.477051 12.466 0.477051 11.7279V2.27212C0.477051 1.53403 0.477051 1.16499 0.630943 0.961561C0.76501 0.784337 0.969927 0.674669 1.19175 0.661424C1.44638 0.646221 1.75344 0.850929 2.36757 1.26035L9.45939 5.98823Z" fill="white"/>
</svg>