<svg width="828" height="1489" viewBox="0 0 828 1489" fill="none" xmlns="http://www.w3.org/2000/svg">
<g opacity="0.15">
<path fill-rule="evenodd" clip-rule="evenodd" d="M507.89 82.1426L529.749 163.719L100.664 375.684L75.6468 282.318L172.891 234.28C149.3 185.954 136.073 158.859 112.481 110.533L25.8636 96.5242L0 0L507.89 82.1426ZM100.747 37.8701L490.848 100.962L504.625 152.38L114.548 345.075L100.771 293.657L201.358 243.968L100.747 37.8701ZM29.1291 26.2872L42.9063 77.7045L106.113 87.9272L80.0422 34.5215L29.1291 26.2872ZM191.249 101.696L249.171 220.348L415.833 138.019L191.249 101.696ZM228.457 129.29L258.955 191.765L346.709 148.415L228.457 129.29Z" fill="url(#paint0_linear_1941_1313)"/>
<path fill-rule="evenodd" clip-rule="evenodd" d="M145.197 505.341L123.338 423.765L552.423 211.8L577.44 305.166L480.196 353.204L540.606 476.951L627.224 490.96L653.087 587.484L145.197 505.341ZM552.341 549.614L162.239 486.522L148.462 435.104L538.539 242.409L552.316 293.827L451.729 343.516L552.341 549.614ZM623.958 561.197L610.181 509.78L546.974 499.557L573.045 552.963L623.958 561.197ZM461.839 485.788L403.916 367.136L237.254 449.465L461.839 485.788ZM424.63 458.194L394.132 395.719L306.379 439.069L424.63 458.194Z" fill="url(#paint1_linear_1941_1313)"/>
<path fill-rule="evenodd" clip-rule="evenodd" d="M294.264 1061.67L272.406 980.091L701.49 768.127L726.508 861.493L629.263 909.531L689.673 1033.28L776.291 1047.29L802.155 1143.81L294.264 1061.67ZM701.408 1105.94L311.307 1042.85L297.53 991.431L687.607 798.736L701.384 850.153L600.797 899.843L701.408 1105.94ZM773.025 1117.52L759.248 1066.11L696.041 1055.88L722.112 1109.29L773.025 1117.52ZM610.906 1042.11L552.983 923.462L386.322 1005.79L610.906 1042.11ZM573.698 1014.52L543.199 952.046L455.446 995.395L573.698 1014.52Z" fill="url(#paint2_linear_1941_1313)"/>
<path fill-rule="evenodd" clip-rule="evenodd" d="M656.898 638.246L678.756 719.823L249.672 931.787L224.654 838.422L321.899 790.384L261.489 666.637L174.871 652.628L149.007 556.104L656.898 638.246ZM249.754 593.974L639.855 657.066L653.632 708.483L263.555 901.178L249.778 849.761L350.366 800.072L249.754 593.974ZM178.137 582.391L191.914 633.808L255.121 644.031L229.05 590.625L178.137 582.391ZM340.256 657.8L398.179 776.452L564.84 694.123L340.256 657.8ZM377.464 685.394L407.963 747.869L495.716 704.519L377.464 685.394Z" fill="url(#paint3_linear_1941_1313)"/>
<path fill-rule="evenodd" clip-rule="evenodd" d="M805.965 1194.57L827.824 1276.15L398.739 1488.11L373.722 1394.75L470.966 1346.71L410.556 1222.96L323.939 1208.95L298.075 1112.43L805.965 1194.57ZM398.821 1150.3L788.923 1213.39L802.7 1264.81L412.623 1457.5L398.846 1406.09L499.433 1356.4L398.821 1150.3ZM327.204 1138.72L340.981 1190.13L404.188 1200.36L378.117 1146.95L327.204 1138.72ZM489.324 1214.13L547.246 1332.78L713.908 1250.45L489.324 1214.13ZM526.532 1241.72L557.03 1304.19L644.784 1260.85L526.532 1241.72Z" fill="url(#paint4_linear_1941_1313)"/>
</g>
<defs>
<linearGradient id="paint0_linear_1941_1313" x1="413.912" y1="0" x2="413.912" y2="1488.11" gradientUnits="userSpaceOnUse">
<stop offset="0.498342" stop-color="#8C31FF"/>
<stop offset="0.709717" stop-color="white"/>
</linearGradient>
<linearGradient id="paint1_linear_1941_1313" x1="413.912" y1="0" x2="413.912" y2="1488.11" gradientUnits="userSpaceOnUse">
<stop offset="0.498342" stop-color="#8C31FF"/>
<stop offset="0.709717" stop-color="white"/>
</linearGradient>
<linearGradient id="paint2_linear_1941_1313" x1="413.912" y1="0" x2="413.912" y2="1488.11" gradientUnits="userSpaceOnUse">
<stop offset="0.498342" stop-color="#8C31FF"/>
<stop offset="0.709717" stop-color="white"/>
</linearGradient>
<linearGradient id="paint3_linear_1941_1313" x1="413.912" y1="0" x2="413.912" y2="1488.11" gradientUnits="userSpaceOnUse">
<stop offset="0.498342" stop-color="#8C31FF"/>
<stop offset="0.709717" stop-color="white"/>
</linearGradient>
<linearGradient id="paint4_linear_1941_1313" x1="413.912" y1="0" x2="413.912" y2="1488.11" gradientUnits="userSpaceOnUse">
<stop offset="0.498342" stop-color="#8C31FF"/>
<stop offset="0.709717" stop-color="white"/>
</linearGradient>
</defs>
</svg>
