<svg width="21" height="20" viewBox="0 0 21 20" fill="none" xmlns="http://www.w3.org/2000/svg"><path d="M7.34824 16.104C7.34824 16.1867 7.25312 16.2529 7.13319 16.2529C6.99672 16.2653 6.9016 16.1991 6.9016 16.104C6.9016 16.0213 6.99672 15.9551 7.11665 15.9551C7.24072 15.9427 7.34824 16.0089 7.34824 16.104ZM6.06207 15.9179C6.03312 16.0006 6.11584 16.0957 6.2399 16.1205C6.34743 16.1619 6.4715 16.1205 6.49631 16.0378C6.52112 15.9551 6.44255 15.86 6.31848 15.8228C6.21096 15.7938 6.09102 15.8352 6.06207 15.9179ZM7.89 15.8476C7.77007 15.8765 7.68736 15.9551 7.69977 16.0502C7.71217 16.1329 7.8197 16.1867 7.94377 16.1577C8.0637 16.1288 8.14641 16.0502 8.134 15.9675C8.1216 15.8889 8.00993 15.8352 7.89 15.8476ZM10.6112 0C4.87516 0 0.487305 4.35477 0.487305 10.0908C0.487305 14.6772 3.37394 18.6019 7.49712 19.9832C8.02648 20.0783 8.21258 19.7516 8.21258 19.4827C8.21258 19.2263 8.20017 17.812 8.20017 16.9435C8.20017 16.9435 5.30526 17.5638 4.69733 15.7111C4.69733 15.7111 4.22587 14.5076 3.54764 14.1975C3.54764 14.1975 2.60059 13.5482 3.61381 13.5606C3.61381 13.5606 4.64357 13.6433 5.21014 14.6276C6.11584 16.2239 7.6336 15.7649 8.22499 15.4919C8.3201 14.8302 8.58892 14.3712 8.88668 14.0982C6.57489 13.8418 4.24242 13.5068 4.24242 9.52839C4.24242 8.3911 4.55672 7.82039 5.21841 7.09253C5.11089 6.82372 4.75936 5.71538 5.32594 4.28447C6.19028 4.01565 8.17949 5.40107 8.17949 5.40107C9.00661 5.16948 9.89576 5.04955 10.7766 5.04955C11.6575 5.04955 12.5467 5.16948 13.3738 5.40107C13.3738 5.40107 15.363 4.01152 16.2273 4.28447C16.7939 5.71951 16.4424 6.82372 16.3349 7.09253C16.9966 7.82453 17.4018 8.39524 17.4018 9.52839C17.4018 13.5192 14.966 13.8377 12.6542 14.0982C13.0347 14.4249 13.3572 15.0453 13.3572 16.0171C13.3572 17.4108 13.3448 19.1354 13.3448 19.4745C13.3448 19.7433 13.5351 20.07 14.0603 19.9749C18.1959 18.6019 20.9998 14.6772 20.9998 10.0908C20.9998 4.35477 16.3473 0 10.6112 0ZM4.50709 14.2636C4.45333 14.305 4.46574 14.4001 4.53604 14.4787C4.60221 14.5449 4.69733 14.5738 4.75109 14.52C4.80486 14.4787 4.79245 14.3836 4.72214 14.305C4.65597 14.2388 4.56086 14.2099 4.50709 14.2636ZM4.06045 13.9287C4.0315 13.9824 4.07286 14.0486 4.15557 14.0899C4.22174 14.1313 4.30445 14.1189 4.3334 14.061C4.36235 14.0072 4.32099 13.9411 4.23828 13.8997C4.15557 13.8749 4.0894 13.8873 4.06045 13.9287ZM5.40038 15.4009C5.33421 15.4547 5.35902 15.5788 5.45414 15.6573C5.54926 15.7524 5.66919 15.7649 5.72296 15.6987C5.77672 15.6449 5.75191 15.5209 5.66919 15.4423C5.57821 15.3472 5.45414 15.3348 5.40038 15.4009ZM4.92892 14.793C4.86275 14.8343 4.86275 14.9419 4.92892 15.037C4.99509 15.1321 5.10675 15.1735 5.16052 15.1321C5.22669 15.0783 5.22669 14.9708 5.16052 14.8757C5.10262 14.7806 4.99509 14.7392 4.92892 14.793Z" fill="#71677E"/></svg>