<svg width="12" height="15" viewBox="0 0 12 15" fill="none" xmlns="http://www.w3.org/2000/svg">
<path d="M0.272949 1.72182C0.272949 1.29414 0.272949 1.0803 0.356181 0.916953C0.429393 0.773265 0.546215 0.656444 0.689902 0.583231C0.853253 0.5 1.06709 0.5 1.49477 0.5H2.86931C3.29699 0.5 3.51083 0.5 3.67418 0.583231C3.81787 0.656444 3.93469 0.773265 4.0079 0.916953C4.09113 1.0803 4.09113 1.29414 4.09113 1.72182V13.2782C4.09113 13.7059 4.09113 13.9197 4.0079 14.083C3.93469 14.2267 3.81787 14.3436 3.67418 14.4168C3.51083 14.5 3.29699 14.5 2.86931 14.5H1.49477C1.06709 14.5 0.853253 14.5 0.689902 14.4168C0.546215 14.3436 0.429393 14.2267 0.356181 14.083C0.272949 13.9197 0.272949 13.7059 0.272949 13.2782V1.72182Z" fill="white"/>
<path d="M7.90932 1.72182C7.90932 1.29414 7.90932 1.0803 7.99255 0.916953C8.06576 0.773265 8.18258 0.656444 8.32627 0.583231C8.48962 0.5 8.70346 0.5 9.13114 0.5H10.5057C10.9334 0.5 11.1472 0.5 11.3105 0.583231C11.4542 0.656444 11.5711 0.773265 11.6443 0.916953C11.7275 1.0803 11.7275 1.29414 11.7275 1.72182V13.2782C11.7275 13.7059 11.7275 13.9197 11.6443 14.083C11.5711 14.2267 11.4542 14.3436 11.3105 14.4168C11.1472 14.5 10.9334 14.5 10.5057 14.5H9.13114C8.70346 14.5 8.48962 14.5 8.32627 14.4168C8.18258 14.3436 8.06576 14.2267 7.99255 14.083C7.90932 13.9197 7.90932 13.7059 7.90932 13.2782V1.72182Z" fill="white"/>
</svg>