<svg width="18" height="20" viewBox="0 0 18 20" fill="none" xmlns="http://www.w3.org/2000/svg"><path d="M13.2756 9.15226C13.3672 9.18975 13.4505 9.23141 13.538 9.2689C14.7544 9.85628 15.6459 10.7353 16.1125 11.8267C16.7665 13.3472 16.829 15.8175 14.8503 17.7921C13.3422 19.3001 11.5051 19.9792 8.90983 20H8.89733C5.97294 19.9792 3.72758 18.996 2.21539 17.0756C0.869838 15.3676 0.178315 12.989 0.15332 10.0104V9.99792V9.98959C0.174149 7.01104 0.865672 4.63237 2.21123 2.92439C3.72341 1.00396 5.97294 0.020829 8.89733 0H8.90983C11.8384 0.020829 14.1129 0.999792 15.6709 2.91189C16.4374 3.85753 17.004 4.99479 17.3622 6.31535L15.6793 6.76526C15.3835 5.69048 14.9377 4.77401 14.3379 4.04082C13.1215 2.54947 11.2968 1.78296 8.9015 1.7663C6.52699 1.78713 4.73153 2.54947 3.56094 4.03249C2.4695 5.4197 1.90296 7.42762 1.88213 9.99792C1.90296 12.5682 2.4695 14.5761 3.56094 15.9675C4.72737 17.4505 6.52699 18.2129 8.9015 18.2337C11.0427 18.217 12.4591 17.7088 13.638 16.5299C14.9836 15.1885 14.9586 13.5388 14.5295 12.5349C14.2754 11.9433 13.8171 11.4518 13.2006 11.081C13.0465 12.2016 12.709 13.0931 12.1716 13.7805C11.4593 14.6886 10.447 15.1802 9.14311 15.251C8.15999 15.3051 7.21435 15.0677 6.48117 14.5845C5.61468 14.0096 5.10646 13.1348 5.0523 12.1141C4.94815 10.1021 6.53949 8.65653 9.01814 8.51489C9.89712 8.4649 10.722 8.5024 11.4843 8.63153C11.3843 8.015 11.1802 7.52343 10.8761 7.16517C10.4595 6.67778 9.80964 6.42783 8.95149 6.42366H8.92233C8.2308 6.42366 7.29767 6.61529 6.70196 7.51927L5.26892 6.53614C6.06875 5.32389 7.36432 4.65736 8.92649 4.65736H8.95982C11.5676 4.67403 13.1215 6.30285 13.2798 9.14393L13.2714 9.15226H13.2756ZM6.77694 12.0183C6.8311 13.0639 7.96003 13.5513 9.05147 13.4889C10.1179 13.4305 11.326 13.014 11.5301 10.4395C10.9802 10.3187 10.372 10.2562 9.72216 10.2562C9.5222 10.2562 9.32224 10.2604 9.12228 10.2729C7.33516 10.3728 6.73945 11.2393 6.78111 12.0142L6.77694 12.0183Z" fill="#71677E"/></svg>